<svg width="408" height="58" viewBox="0 0 408 58" fill="none" xmlns="http://www.w3.org/2000/svg">
<path d="M50.7664 1.05904H0.476196V12.7558H19.7929L19.1269 13.987V56.4647H32.1157V13.987L31.4496 12.7558H50.7664L50.7664 1.05904Z" fill="#1890FF"/>
<path d="M106.385 40.5954C106.385 32.9344 100.324 26.573 88.867 23.8369C87.6014 23.5633 81.4067 21.9901 80.2078 21.648C72.148 19.596 69.6168 18.6384 69.6168 16.5179C69.6168 14.1238 73.0139 11.9349 80.674 12.0033C86.6023 12.0033 93.1966 15.2866 96.3938 19.1172L105.386 10.0197C99.6577 4.00031 91.1983 0.375 80.8738 0.375C65.2872 0.375 56.4282 7.55722 56.4282 16.8599C56.4282 26.6414 65.6869 30.3351 75.2786 32.7292C76.4776 33.0712 84.0711 34.918 85.2701 35.1917C92.1974 36.9017 93.1966 39.501 93.1966 40.5954C93.1966 43.3999 90.5322 45.452 82.6723 45.452C76.4776 45.452 68.6843 42.6475 64.2881 38.2697L55.429 47.4356C62.09 53.7286 71.3487 57.1487 81.5399 57.1487C98.5253 57.1487 106.385 49.3509 106.385 40.5954L106.385 40.5954Z" fill="#1890FF"/>
<path d="M136.693 28.2146H111.714V38.8854H136.693V28.2146Z" fill="#1890FF"/>
<path d="M180.588 19.3224C180.588 23.1529 178.523 25.9574 172.595 25.9574H156.476L157.675 24.7262V13.987L156.476 12.7558H172.662C178.59 12.7558 180.588 15.3551 180.588 19.3224V19.3224ZM193.777 19.3224C193.777 8.58326 185.784 1.05904 172.662 1.05904H144.686V56.4647H157.675V38.8854L156.476 37.6541H172.595C185.85 37.6541 193.777 29.7195 193.777 19.3224V19.3224Z" fill="#1890FF"/>
<path d="M238.006 19.1856C238.006 22.0585 235.674 25.4786 229.013 25.4786H214.559L215.758 24.2473V13.987L214.559 12.7558H229.746C235.474 12.7558 238.006 15.4235 238.006 19.1856V19.1856ZM247.664 37.6541C246.132 34.7128 244.134 32.866 242.335 31.9768V31.84C246.998 29.6511 251.194 24.1105 251.194 18.7067C251.194 6.53119 240.67 1.05904 229.746 1.05904H202.769V56.4647H215.758V37.3805L214.626 36.2177H224.55C230.612 36.2177 233.343 37.9961 235.341 41.7582L243.001 56.4647H257.522L247.664 37.6541Z" fill="#1890FF"/>
<path d="M277.172 1.05904H264.183V56.4647H277.172V1.05904Z" fill="#1890FF"/>
<path d="M349.11 1.05904H338.319L321.267 30.5403L319.336 35.3969H319.203L317.138 30.5403L300.152 1.05904H289.495V56.5331H302.484V27.1202H302.617L305.215 32.9344L319.203 57.2171H319.402L333.39 32.9344L335.988 27.1202H336.121V56.5331H349.11L349.11 1.05904Z" fill="#1890FF"/>
<path d="M407.393 44.768H372.89L374.089 43.5367V35.8757L372.89 34.6444H404.196V22.8793H372.89L374.089 21.648V13.987L372.89 12.7558H407.393V1.05904H361.1V56.4647H407.393V44.768Z" fill="#1890FF"/>
</svg>
